<svg version="1.0" xmlns="http://www.w3.org/2000/svg" width="15pt" height="15pt" viewBox="0 0 96 96" preserveAspectRatio="xMidYMid meet">
    <g transform="translate(0.000000,96.000000) scale(0.100000,-0.100000)" fill="#FFF" stroke="none">
        <path d="M257 858 c-14 -13 -46 -76 -73 -140 l-49 -118 -36 0 c-65 0 -67 -14
        -25 -168 63 -233 77 -273 97 -293 18 -18 35 -19 309 -19 274 0 291 1 309 19
        20 20 34 60 97 293 42 154 40 168 -25 168 l-36 0 -49 118 c-70 170 -56 162
        -296 162 -192 0 -200 -1 -223 -22z m439 -156 l41 -97 -129 -3 c-70 -1 -186 -1
        -256 0 l-129 3 41 97 41 98 175 0 175 0 41 -98z m-347 -236 c8 -9 11 -48 9
        -111 -2 -80 -6 -100 -20 -109 -13 -8 -23 -8 -36 0 -14 9 -18 29 -20 109 -3
        101 4 125 38 125 10 0 23 -6 29 -14z m160 0 c8 -9 11 -48 9 -111 -2 -80 -6
        -100 -20 -109 -13 -8 -23 -8 -35 0 -15 9 -19 29 -21 109 -3 101 4 125 38 125
        10 0 23 -6 29 -14z m160 0 c8 -9 11 -48 9 -111 -2 -80 -6 -100 -20 -109 -13
        -8 -23 -8 -35 0 -15 9 -19 29 -21 109 -3 101 4 125 38 125 10 0 23 -6 29 -14z" />
    </g>
</svg>
